<svg width="44" height="48" viewBox="0 0 44 48" fill="none" xmlns="http://www.w3.org/2000/svg">
<path d="M2.4 7.2H9.6V4.8C9.6 3.52696 10.1057 2.30606 11.0059 1.40589C11.9061 0.505713 13.127 0 14.4 0H28.8C30.073 0 31.2939 0.505713 32.1941 1.40589C33.0943 2.30606 33.6 3.52696 33.6 4.8V7.2H40.8C41.4365 7.2 42.047 7.45286 42.4971 7.90294C42.9471 8.35303 43.2 8.96348 43.2 9.6C43.2 10.2365 42.9471 10.847 42.4971 11.2971C42.047 11.7471 41.4365 12 40.8 12H38.4V43.2C38.4 44.473 37.8943 45.6939 36.9941 46.5941C36.0939 47.4943 34.873 48 33.6 48H9.6C8.32696 48 7.10606 47.4943 6.20589 46.5941C5.30571 45.6939 4.8 44.473 4.8 43.2V12H2.4C1.76348 12 1.15303 11.7471 0.702944 11.2971C0.252856 10.847 0 10.2365 0 9.6C0 8.96348 0.252856 8.35303 0.702944 7.90294C1.15303 7.45286 1.76348 7.2 2.4 7.2V7.2ZM9.6 12V43.2H33.6V12H9.6ZM14.4 7.2H28.8V4.8H14.4V7.2ZM14.4 16.8H19.2V38.4H14.4V16.8ZM24 16.8H28.8V38.4H24V16.8Z" fill="#FA4949"/>
</svg>
