<svg width="48" height="48" viewBox="0 0 48 48" fill="none" xmlns="http://www.w3.org/2000/svg">
<path d="M45.6654 2.33535C47.1595 3.82985 47.9988 5.85655 47.9988 7.96977C47.9988 10.083 47.1595 12.1097 45.6654 13.6042L16.2302 43.0395C14.9537 44.315 13.3546 45.2199 11.6039 45.6574L2.47485 47.9407C2.1409 48.024 1.79104 48.0195 1.45938 47.9274C1.12772 47.8353 0.825578 47.6589 0.582391 47.4153C0.339204 47.1717 0.16327 46.8693 0.0717382 46.5374C-0.0197941 46.2056 -0.0238035 45.8558 0.0601012 45.522L2.33937 36.3969C2.77736 34.6443 3.68368 33.0438 4.96133 31.7666L34.3926 2.33535C35.1327 1.59497 36.0114 1.00766 36.9785 0.606949C37.9456 0.206244 38.9822 0 40.029 0C41.0759 0 42.1125 0.206244 43.0796 0.606949C44.0467 1.00766 44.9254 1.59497 45.6654 2.33535V2.33535ZM31.5754 10.783L7.78253 34.5878C7.01722 35.3543 6.47456 36.3143 6.21254 37.3652L4.7342 43.2746L10.6396 41.7962C11.691 41.5331 12.651 40.989 13.4169 40.2223L37.2138 16.4254L31.5794 10.791L31.5754 10.783ZM37.2138 5.15256L34.3926 7.96977L40.027 13.6042L42.8482 10.787C43.5741 10.0355 43.9757 9.0289 43.9666 7.98411C43.9576 6.93932 43.5385 5.9399 42.7997 5.2011C42.0609 4.4623 41.0615 4.04322 40.0167 4.03415C38.9719 4.02507 37.9653 4.42671 37.2138 5.15256V5.15256Z" fill="#000099"/>
</svg>
