<svg width="23" height="23" viewBox="0 0 23 23" fill="none" xmlns="http://www.w3.org/2000/svg">
<path fill-rule="evenodd" clip-rule="evenodd" d="M2.72955 11.2226C2.72018 11.2072 2.71156 11.1927 2.70364 11.1792C2.71275 11.165 2.72271 11.1499 2.73358 11.1337C2.83797 10.9785 3.00216 10.7644 3.22549 10.5098C3.67104 10.0018 4.33041 9.35679 5.16818 8.72371C6.8487 7.45379 9.19914 6.26689 11.9502 6.26689C14.7012 6.26689 17.0517 7.45379 18.7322 8.72371C19.57 9.35679 20.2294 10.0018 20.6749 10.5098C20.8982 10.7644 21.0624 10.9785 21.1668 11.1337C21.1809 11.1547 21.1935 11.174 21.2047 11.1915C21.1959 11.2086 21.1861 11.2271 21.1752 11.2471C21.0917 11.3997 20.9585 11.6105 20.7717 11.8608C20.3988 12.3605 19.8284 12.9968 19.0544 13.622C17.5105 14.8692 15.165 16.0669 11.9502 16.0669C8.96757 16.0669 6.61891 14.8746 5.00697 13.6159C4.20097 12.9865 3.58613 12.3456 3.177 11.8415C2.97199 11.5889 2.82333 11.3765 2.72955 11.2226ZM21.2645 11.0575C21.2647 11.0574 21.2639 11.0602 21.2618 11.0662C21.2633 11.0606 21.2643 11.0576 21.2645 11.0575ZM2.63376 11.0451C2.63055 11.0373 2.62945 11.0337 2.6297 11.0339C2.62995 11.034 2.63155 11.0379 2.63376 11.0451ZM11.9502 5.06689C8.85125 5.06689 6.25169 6.40084 4.44471 7.76633C3.53873 8.45095 2.81997 9.15229 2.32334 9.71852C2.07557 10.001 1.87766 10.256 1.73771 10.4642C1.66837 10.5674 1.60709 10.6681 1.56059 10.761C1.53742 10.8073 1.51346 10.8604 1.49414 10.917C1.47768 10.9653 1.4502 11.0564 1.4502 11.1669C1.4502 11.3358 1.51619 11.4863 1.54487 11.5501C1.58635 11.6424 1.64148 11.7431 1.70483 11.847C1.83253 12.0566 2.01434 12.3132 2.24527 12.5977C2.70801 13.1679 3.38692 13.8733 4.26842 14.5617C6.03149 15.9384 8.63282 17.2669 11.9502 17.2669C15.4854 17.2669 18.0899 15.9438 19.8085 14.5555C20.6657 13.8631 21.3047 13.1529 21.7334 12.5785C21.9474 12.2917 22.1129 12.0334 22.2282 11.8226C22.2854 11.7178 22.3343 11.6175 22.3706 11.5261C22.3974 11.4588 22.4502 11.3195 22.4502 11.1669C22.4502 11.0564 22.4227 10.9653 22.4063 10.917C22.3869 10.8604 22.363 10.8073 22.3398 10.761C22.2933 10.6681 22.232 10.5674 22.1627 10.4642C22.0227 10.256 21.8248 10.001 21.5771 9.71852C21.0804 9.15229 20.3617 8.45095 19.4557 7.76633C17.6487 6.40084 15.0491 5.06689 11.9502 5.06689ZM9.2502 11.1669C9.2502 9.67569 10.459 8.46686 11.9502 8.46686C13.4414 8.46686 14.6502 9.67569 14.6502 11.1669C14.6502 12.658 13.4414 13.8669 11.9502 13.8669C10.459 13.8669 9.2502 12.658 9.2502 11.1669ZM11.9502 7.26686C9.79628 7.26686 8.0502 9.01295 8.0502 11.1669C8.0502 13.3208 9.79628 15.0669 11.9502 15.0669C14.1041 15.0669 15.8502 13.3208 15.8502 11.1669C15.8502 9.01295 14.1041 7.26686 11.9502 7.26686Z" fill="#009042"/>
</svg>
